<svg xmlns="http://www.w3.org/2000/svg" xmlns:xlink="http://www.w3.org/1999/xlink" version="1.1" width="256" height="256" viewBox="0 0 256 256" xml:space="preserve">
<desc>Created with Fabric.js 1.7.22</desc>
<defs>
</defs>
<g transform="translate(128 128) scale(0.77 0.77)" style="">
	<g style="stroke: none; stroke-width: 0; stroke-dasharray: none; stroke-linecap: butt; stroke-linejoin: miter; stroke-miterlimit: 10; fill: none; fill-rule: nonzero; opacity: 1;" transform="translate(-165.15000000000003 -165.15000000000003) scale(3.67 3.67)" >
	<path d="M 76.632 53.566 c -4.489 -2.714 -9.763 -3.516 -14.856 -2.261 c -1.07 0.264 -2.096 0.63 -3.088 1.057 l -4.409 -8.425 l 4.103 -6.788 c 2.77 1.411 5.79 2.136 8.852 2.136 c 1.576 0 3.165 -0.191 4.734 -0.578 c 5.093 -1.256 9.391 -4.419 12.103 -8.907 c 2.713 -4.488 3.516 -9.765 2.261 -14.857 c -1.255 -5.092 -4.418 -9.391 -8.906 -12.104 c -4.488 -2.713 -9.765 -3.516 -14.857 -2.261 c -5.093 1.256 -9.391 4.419 -12.103 8.907 c -2.713 4.488 -3.516 9.765 -2.261 14.857 c 1.138 4.618 3.858 8.57 7.7 11.292 l -4.111 6.801 l -9.509 0.011 c -0.083 -1.077 -0.236 -2.155 -0.499 -3.225 c -1.256 -5.092 -4.419 -9.391 -8.907 -12.104 c -4.488 -2.713 -9.763 -3.516 -14.857 -2.261 c -5.092 1.256 -9.391 4.419 -12.104 8.907 c -5.601 9.265 -2.619 21.36 6.646 26.961 c 3.105 1.877 6.586 2.84 10.122 2.84 c 1.577 0 3.165 -0.191 4.735 -0.579 c 5.092 -1.255 9.391 -4.418 12.104 -8.907 c 1.629 -2.695 2.555 -5.675 2.774 -8.728 l 9.435 -0.011 l 4.376 8.36 c -2.601 1.613 -4.81 3.818 -6.439 6.513 c -2.714 4.488 -3.516 9.764 -2.261 14.856 c 1.255 5.093 4.419 9.391 8.906 12.104 C 59.485 89.089 62.985 90 66.442 90 c 6.653 0 13.15 -3.376 16.836 -9.472 C 88.878 71.261 85.896 59.167 76.632 53.566 z M 37.039 52.577 c -2.312 3.825 -5.975 6.52 -10.314 7.59 c -4.338 1.069 -8.835 0.386 -12.66 -1.926 s -6.52 -5.975 -7.59 -10.315 c -1.07 -4.339 -0.386 -8.835 1.927 -12.66 c 2.312 -3.825 5.975 -6.52 10.314 -7.59 c 1.338 -0.33 2.691 -0.493 4.034 -0.493 c 3.014 0 5.981 0.821 8.626 2.42 c 3.825 2.312 6.52 5.975 7.59 10.314 C 40.036 44.256 39.352 48.752 37.039 52.577 z M 51.022 23.647 c -1.07 -4.339 -0.386 -8.835 1.926 -12.66 s 5.974 -6.52 10.314 -7.59 c 1.338 -0.33 2.691 -0.493 4.034 -0.493 c 3.014 0 5.98 0.821 8.626 2.42 c 3.825 2.312 6.519 5.975 7.589 10.314 c 1.07 4.339 0.386 8.835 -1.926 12.66 c -2.312 3.825 -5.974 6.52 -10.314 7.59 c -4.339 1.07 -8.835 0.385 -12.66 -1.927 C 54.787 31.649 52.092 27.986 51.022 23.647 z M 80.794 79.026 c -4.774 7.895 -15.081 10.434 -22.975 5.663 c -7.895 -4.773 -10.436 -15.079 -5.663 -22.974 c 2.312 -3.825 5.975 -6.52 10.314 -7.59 c 1.339 -0.33 2.691 -0.493 4.035 -0.493 c 3.013 0 5.98 0.821 8.625 2.419 C 83.024 60.823 85.566 71.13 80.794 79.026 z" style="stroke: none; stroke-width: 1; stroke-dasharray: none; stroke-linecap: butt; stroke-linejoin: miter; stroke-miterlimit: 10; fill: rgb(0,0,0); fill-rule: nonzero; opacity: 1;" transform=" matrix(1 0 0 1 0 0) " stroke-linecap="round" />
</g>
</g>
</svg>