<svg xmlns="http://www.w3.org/2000/svg" xmlns:xlink="http://www.w3.org/1999/xlink" version="1.1" width="256" height="256" viewBox="0 0 256 256" xml:space="preserve">
<desc>Created with Fabric.js 1.7.22</desc>
<defs>
</defs>
<g transform="translate(128 128) scale(0.77 0.77)" style="">
	<g style="stroke: none; stroke-width: 0; stroke-dasharray: none; stroke-linecap: butt; stroke-linejoin: miter; stroke-miterlimit: 10; fill: none; fill-rule: nonzero; opacity: 1;" transform="translate(-165.15000000000003 -165.15000000000003) scale(3.67 3.67)" >
	<path d="M 41.506 56.086 H 16.747 c -0.552 0 -1 -0.447 -1 -1 v -7.021 c 0 -0.553 0.448 -1 1 -1 h 24.759 c 0.552 0 1 0.447 1 1 v 7.021 C 42.506 55.639 42.058 56.086 41.506 56.086 z M 17.747 54.086 h 22.759 v -5.021 H 17.747 V 54.086 z" style="stroke: none; stroke-width: 1; stroke-dasharray: none; stroke-linecap: butt; stroke-linejoin: miter; stroke-miterlimit: 10; fill: rgb(0,0,0); fill-rule: nonzero; opacity: 1;" transform=" matrix(1 0 0 1 0 0) " stroke-linecap="round" />
	<path d="M 54.747 63.106 h -38 c -0.552 0 -1 -0.447 -1 -1 s 0.448 -1 1 -1 h 38 c 0.553 0 1 0.447 1 1 S 55.3 63.106 54.747 63.106 z" style="stroke: none; stroke-width: 1; stroke-dasharray: none; stroke-linecap: butt; stroke-linejoin: miter; stroke-miterlimit: 10; fill: rgb(0,0,0); fill-rule: nonzero; opacity: 1;" transform=" matrix(1 0 0 1 0 0) " stroke-linecap="round" />
	<path d="M 65.576 63.106 h -3.695 c -0.553 0 -1 -0.447 -1 -1 s 0.447 -1 1 -1 h 3.695 c 0.553 0 1 0.447 1 1 S 66.129 63.106 65.576 63.106 z" style="stroke: none; stroke-width: 1; stroke-dasharray: none; stroke-linecap: butt; stroke-linejoin: miter; stroke-miterlimit: 10; fill: rgb(0,0,0); fill-rule: nonzero; opacity: 1;" transform=" matrix(1 0 0 1 0 0) " stroke-linecap="round" />
	<path d="M 89.492 42.139 c -0.313 -0.176 -0.697 -0.172 -1.008 0.014 l -11.878 7.14 V 37.745 c 0 -0.552 -0.447 -1 -1 -1 H 63.16 c 6.209 -3.103 10.492 -9.505 10.492 -16.905 c 0 -10.424 -8.48 -18.905 -18.905 -18.905 c -10.03 0 -18.237 7.857 -18.846 17.736 c -2.323 -3.804 -6.501 -6.357 -11.275 -6.357 c -7.287 0 -13.216 5.929 -13.216 13.216 c 0 4.733 2.51 8.881 6.26 11.216 H 7.792 c -0.552 0 -1 0.448 -1 1 v 9.319 H 1 c -0.552 0 -1 0.447 -1 1 v 14.042 c 0 0.553 0.448 1 1 1 h 5.792 v 9.32 c 0 0.553 0.448 1 1 1 h 31.335 L 23.951 87.328 c -0.407 0.373 -0.435 1.006 -0.062 1.413 c 0.197 0.215 0.467 0.324 0.738 0.324 c 0.241 0 0.483 -0.087 0.675 -0.263 l 16.397 -15.02 l 16.397 15.02 c 0.192 0.176 0.435 0.263 0.676 0.263 c 0.271 0 0.54 -0.109 0.737 -0.324 c 0.373 -0.407 0.346 -1.04 -0.062 -1.413 L 44.271 73.427 h 31.336 c 0.553 0 1 -0.447 1 -1 V 60.88 l 11.878 7.14 c 0.159 0.095 0.337 0.143 0.516 0.143 c 0.17 0 0.34 -0.043 0.492 -0.13 c 0.313 -0.177 0.508 -0.51 0.508 -0.87 V 43.009 C 90 42.649 89.806 42.316 89.492 42.139 z M 54.747 2.935 c 9.321 0 16.905 7.583 16.905 16.905 s -7.584 16.905 -16.905 16.905 c -9.322 0 -16.905 -7.583 -16.905 -16.905 S 45.425 2.935 54.747 2.935 z M 46.334 36.745 H 31.582 c 3.132 -1.95 5.387 -5.164 6.048 -8.931 C 39.441 31.685 42.518 34.838 46.334 36.745 z M 13.411 25.529 c 0 -6.185 5.031 -11.216 11.216 -11.216 c 6.184 0 11.215 5.031 11.215 11.216 s -5.031 11.216 -11.215 11.216 C 18.442 36.745 13.411 31.714 13.411 25.529 z M 2 61.106 V 49.064 h 4.792 v 12.042 H 2 z M 74.606 71.427 H 8.792 v -9.32 V 48.064 v -9.319 h 65.815 v 12.315 v 8.051 V 71.427 z M 88 65.395 l -11.394 -6.849 v -6.92 L 88 44.777 V 65.395 z" style="stroke: none; stroke-width: 1; stroke-dasharray: none; stroke-linecap: butt; stroke-linejoin: miter; stroke-miterlimit: 10; fill: rgb(0,0,0); fill-rule: nonzero; opacity: 1;" transform=" matrix(1 0 0 1 0 0) " stroke-linecap="round" />
	<path d="M 54.747 29.48 c 5.315 0 9.641 -4.325 9.641 -9.64 s -4.325 -9.64 -9.641 -9.64 s -9.641 4.325 -9.641 9.64 S 49.432 29.48 54.747 29.48 z M 54.747 12.2 c 4.213 0 7.641 3.427 7.641 7.64 s -3.428 7.64 -7.641 7.64 s -7.641 -3.427 -7.641 -7.64 S 50.534 12.2 54.747 12.2 z" style="stroke: none; stroke-width: 1; stroke-dasharray: none; stroke-linecap: butt; stroke-linejoin: miter; stroke-miterlimit: 10; fill: rgb(0,0,0); fill-rule: nonzero; opacity: 1;" transform=" matrix(1 0 0 1 0 0) " stroke-linecap="round" />
	<path d="M 24.626 19.592 c -3.274 0 -5.938 2.664 -5.938 5.938 c 0 3.273 2.664 5.937 5.938 5.937 s 5.937 -2.664 5.937 -5.937 C 30.563 22.255 27.9 19.592 24.626 19.592 z M 24.626 29.466 c -2.171 0 -3.938 -1.766 -3.938 -3.937 s 1.766 -3.938 3.938 -3.938 c 2.171 0 3.937 1.767 3.937 3.938 S 26.797 29.466 24.626 29.466 z" style="stroke: none; stroke-width: 1; stroke-dasharray: none; stroke-linecap: butt; stroke-linejoin: miter; stroke-miterlimit: 10; fill: rgb(0,0,0); fill-rule: nonzero; opacity: 1;" transform=" matrix(1 0 0 1 0 0) " stroke-linecap="round" />
</g>
</g>
</svg>